# xmcd
#
# Track frame offsets:
#	150
#	18005
#	32019
#	46022
#	58517
#	69157
#	80852
#	91250
#	105512
#	118252
#	130479
#	143702
#	154672
#	165105
#	175635
#	187497
#	200345
#	212700
#
# Disc length: 2996
#
# Revision: 1
# Processed by: cddbd v1.5.1PL0 Copyright (c) Steve Scherf et al.
# Submitted via: VisiTrax 2.9.5.180 - For more info visit www.synapsa.com
# Normalized: r0:DSETVAR1
#
DISCID=eb0bb212
DTITLE=Various Artist - Juke Joint Jump-: A Boogie Woogie Celebration
DYEAR=1900
DGENRE=
TTITLE0=Memphis Slim - PANIC STREET
TTITLE1=Freddie Slack with the Will Bradley Trio - DOWN THE ROAD A PIECE
TTITLE2=Curley Weaver with Clarence Moore - BABY BOOGIE WOOGIE
TTITLE3=Charlie Spand - SOON THIS MORNING NO.2
TTITLE4=The Boogie Woogie Boys - BOOGIE WOOGIE PRAYER- PART 1
TTITLE5=The Boogie Woogie Boys - BOOGIE WOOGIE PRAYER- PART 2
TTITLE6=Sir Charles Thompson - MISTER BOOGIE
TTITLE7=Red Saunders and His Orchestra - HONKY TONK TRAIN BLUES
TTITLE8=Pete Johnson with Big Joe Turner - ROLL'EM PETE
TTITLE9=Champion Jack Dupree - DUPREE SHAKE DANCE
TTITLE10=Harry James and the Boogie Woogie Trio - BOO WOO
TTITLE11=Albert Ammons - SHOUT FOR JOY
TTITLE12=Calvin Frazier - BOOGIE WOOGIE
TTITLE13=Adrian Rollini Trio - HONKY TONK TRAIN BLUES
TTITLE14=Jimmy Yancey - OLD QUAKER BLUES
TTITLE15=Willie "Long Time" Smith - I LOVE YOU BABY BOOGIE
TTITLE16=Pete Johnson - BOOGIE WOOGIE
TTITLE17=Art Tatum - TATUM POLE BOOGIE
EXTD=
EXTT0=
EXTT1=
EXTT2=
EXTT3=
EXTT4=
EXTT5=
EXTT6=
EXTT7=
EXTT8=
EXTT9=
EXTT10=
EXTT11=
EXTT12=
EXTT13=
EXTT14=
EXTT15=
EXTT16=
EXTT17=
PLAYORDER=
